STARTFONT 2.1
FONT -sun-helmet-medium-r-normal--12-120-75-75-p-65-adobe-fontspecific
SIZE 12 75 75
FONTBOUNDINGBOX 14 14 -2 -3

STARTPROPERTIES 28
FOUNDRY "sun"
FAMILY_NAME "helmet"
WEIGHT_NAME "medium"
SLANT "r"
SETWIDTH_NAME "normal"
ADD_STYLE_NAME ""
PIXEL_SIZE 12
POINT_SIZE 120
RESOLUTION_X 75
RESOLUTION_Y 75
SPACING "p"
AVERAGE_WIDTH 65
CHARSET_REGISTRY "adobe"
CHARSET_ENCODING "fontspecific"
COPYRIGHT "© 1999 Sun Microsystems, Inc."
RAW_PIXELSIZE 1000
RAW_POINTSIZE 964
RAW_ASCENT 893
RAW_DESCENT 216
RAW_AVERAGE_WIDTH 5207
FACE_NAME "HelmetNormalalic5"
_XMBDFED_INFO "Edited with xmbdfed 2.4."
WEIGHT 10
X_HEIGHT -1
QUAD_WIDTH 7
DEFAULT_CHAR 4
FONT_DESCENT 3
FONT_ASCENT 11
ENDPROPERTIES

CHARS 203

STARTCHAR char32
ENCODING 32
SWIDTH 28 0
DWIDTH 4 0
BBX 0 0 0 0
BITMAP
ENDCHAR

STARTCHAR char33
ENCODING 33
SWIDTH 21 0
DWIDTH 3 0
BBX 2 9 1 0
BITMAP
80
80
80
80
80
80
80
00
C0
ENDCHAR

STARTCHAR char34
ENCODING 34
SWIDTH 35 0
DWIDTH 5 0
BBX 3 3 1 6
BITMAP
A0
A0
A0
ENDCHAR

STARTCHAR char35
ENCODING 35
SWIDTH 50 0
DWIDTH 7 0
BBX 6 9 0 0
BITMAP
28
28
3C
28
28
68
D0
50
50
ENDCHAR

STARTCHAR char36
ENCODING 36
SWIDTH 57 0
DWIDTH 8 0
BBX 7 11 0 -1
BITMAP
10
3C
54
50
50
3C
16
D2
56
3C
10
ENDCHAR

STARTCHAR char37
ENCODING 37
SWIDTH 71 0
DWIDTH 10 0
BBX 9 9 0 0
BITMAP
6200
9200
9400
9500
BA80
6A80
1280
1280
3100
ENDCHAR

STARTCHAR char38
ENCODING 38
SWIDTH 50 0
DWIDTH 7 0
BBX 7 9 0 0
BITMAP
30
58
48
70
70
D4
8C
8C
76
ENDCHAR

STARTCHAR char39
ENCODING 39
SWIDTH 21 0
DWIDTH 3 0
BBX 1 3 1 6
BITMAP
80
80
80
ENDCHAR

STARTCHAR char40
ENCODING 40
SWIDTH 28 0
DWIDTH 4 0
BBX 3 11 1 -2
BITMAP
40
40
40
80
80
80
80
80
80
40
40
ENDCHAR

STARTCHAR char41
ENCODING 41
SWIDTH 28 0
DWIDTH 4 0
BBX 3 11 0 -2
BITMAP
80
40
40
60
20
20
20
20
40
40
80
ENDCHAR

STARTCHAR char42
ENCODING 42
SWIDTH 28 0
DWIDTH 4 0
BBX 4 4 0 5
BITMAP
40
F0
60
60
ENDCHAR

STARTCHAR char43
ENCODING 43
SWIDTH 57 0
DWIDTH 8 0
BBX 7 7 0 0
BITMAP
10
10
10
FE
10
10
10
ENDCHAR

STARTCHAR char44
ENCODING 44
SWIDTH 21 0
DWIDTH 3 0
BBX 1 3 1 -2
BITMAP
80
80
80
ENDCHAR

STARTCHAR char45
ENCODING 45
SWIDTH 35 0
DWIDTH 5 0
BBX 4 1 0 3
BITMAP
F0
ENDCHAR

STARTCHAR char46
ENCODING 46
SWIDTH 21 0
DWIDTH 3 0
BBX 1 1 1 0
BITMAP
80
ENDCHAR

STARTCHAR char47
ENCODING 47
SWIDTH 35 0
DWIDTH 5 0
BBX 4 9 0 0
BITMAP
10
10
20
20
20
40
40
80
80
ENDCHAR

STARTCHAR char48
ENCODING 48
SWIDTH 50 0
DWIDTH 7 0
BBX 6 9 0 0
BITMAP
38
48
84
84
84
84
84
48
78
ENDCHAR

STARTCHAR char49
ENCODING 49
SWIDTH 50 0
DWIDTH 7 0
BBX 3 9 1 0
BITMAP
20
20
E0
20
20
20
20
20
20
ENDCHAR

STARTCHAR char50
ENCODING 50
SWIDTH 50 0
DWIDTH 7 0
BBX 6 9 0 0
BITMAP
78
CC
84
04
08
30
60
C0
FC
ENDCHAR

STARTCHAR char51
ENCODING 51
SWIDTH 50 0
DWIDTH 7 0
BBX 6 9 0 0
BITMAP
78
4C
84
0C
38
0C
84
CC
78
ENDCHAR

STARTCHAR char52
ENCODING 52
SWIDTH 50 0
DWIDTH 7 0
BBX 6 9 0 0
BITMAP
08
18
38
28
48
88
FC
08
08
ENDCHAR

STARTCHAR char53
ENCODING 53
SWIDTH 50 0
DWIDTH 7 0
BBX 6 9 0 0
BITMAP
7C
40
40
78
CC
04
44
CC
78
ENDCHAR

STARTCHAR char54
ENCODING 54
SWIDTH 50 0
DWIDTH 7 0
BBX 6 9 0 0
BITMAP
38
4C
C0
B8
EC
84
84
44
38
ENDCHAR

STARTCHAR char55
ENCODING 55
SWIDTH 50 0
DWIDTH 7 0
BBX 6 9 0 0
BITMAP
FC
08
08
10
10
20
20
20
60
ENDCHAR

STARTCHAR char56
ENCODING 56
SWIDTH 50 0
DWIDTH 7 0
BBX 6 9 0 0
BITMAP
38
4C
44
4C
38
44
C4
44
38
ENDCHAR

STARTCHAR char57
ENCODING 57
SWIDTH 50 0
DWIDTH 7 0
BBX 6 9 0 0
BITMAP
70
C8
84
8C
CC
74
04
C8
78
ENDCHAR

STARTCHAR char58
ENCODING 58
SWIDTH 21 0
DWIDTH 3 0
BBX 1 6 1 0
BITMAP
80
00
00
00
00
80
ENDCHAR

STARTCHAR char59
ENCODING 59
SWIDTH 21 0
DWIDTH 3 0
BBX 1 8 1 -2
BITMAP
80
00
00
00
00
80
80
80
ENDCHAR

STARTCHAR char60
ENCODING 60
SWIDTH 50 0
DWIDTH 7 0
BBX 6 6 0 0
BITMAP
0C
30
C0
60
18
04
ENDCHAR

STARTCHAR char61
ENCODING 61
SWIDTH 57 0
DWIDTH 8 0
BBX 9 3 -1 2
BITMAP
FF80
0000
FF80
ENDCHAR

STARTCHAR char62
ENCODING 62
SWIDTH 50 0
DWIDTH 7 0
BBX 7 6 0 0
BITMAP
E0
18
06
0C
30
C0
ENDCHAR

STARTCHAR char63
ENCODING 63
SWIDTH 50 0
DWIDTH 7 0
BBX 6 9 0 0
BITMAP
78
4C
84
0C
18
30
20
00
20
ENDCHAR

STARTCHAR char64
ENCODING 64
SWIDTH 27 0
DWIDTH 14 0
BBX 9 9 2 0
BITMAP
3E00
4100
DE80
A680
A480
A580
DE00
4100
3E00
ENDCHAR

STARTCHAR char65
ENCODING 65
SWIDTH 57 0
DWIDTH 8 0
BBX 7 9 0 0
BITMAP
10
38
28
68
44
7C
C4
86
82
ENDCHAR

STARTCHAR char66
ENCODING 66
SWIDTH 57 0
DWIDTH 8 0
BBX 6 9 1 0
BITMAP
F8
8C
84
8C
F8
84
84
8C
F8
ENDCHAR

STARTCHAR char67
ENCODING 67
SWIDTH 64 0
DWIDTH 9 0
BBX 8 9 0 0
BITMAP
3C
62
C3
80
80
80
C2
62
3C
ENDCHAR

STARTCHAR char68
ENCODING 68
SWIDTH 57 0
DWIDTH 8 0
BBX 6 9 1 0
BITMAP
F0
88
84
84
84
84
84
88
F0
ENDCHAR

STARTCHAR char69
ENCODING 69
SWIDTH 57 0
DWIDTH 8 0
BBX 6 9 1 0
BITMAP
FC
80
80
80
F8
80
80
80
FC
ENDCHAR

STARTCHAR char70
ENCODING 70
SWIDTH 50 0
DWIDTH 7 0
BBX 5 9 1 0
BITMAP
F8
80
80
80
F8
80
80
80
80
ENDCHAR

STARTCHAR char71
ENCODING 71
SWIDTH 64 0
DWIDTH 9 0
BBX 8 9 0 0
BITMAP
3C
62
C3
80
8F
81
C3
63
3D
ENDCHAR

STARTCHAR char72
ENCODING 72
SWIDTH 64 0
DWIDTH 9 0
BBX 6 9 1 0
BITMAP
84
84
84
84
FC
84
84
84
84
ENDCHAR

STARTCHAR char73
ENCODING 73
SWIDTH 21 0
DWIDTH 3 0
BBX 1 9 1 0
BITMAP
80
80
80
80
80
80
80
80
80
ENDCHAR

STARTCHAR char74
ENCODING 74
SWIDTH 43 0
DWIDTH 6 0
BBX 5 9 0 0
BITMAP
08
08
08
08
08
08
88
98
70
ENDCHAR

STARTCHAR char75
ENCODING 75
SWIDTH 57 0
DWIDTH 8 0
BBX 7 9 1 0
BITMAP
8C
8C
90
A0
E0
90
98
8C
84
ENDCHAR

STARTCHAR char76
ENCODING 76
SWIDTH 50 0
DWIDTH 7 0
BBX 5 9 1 0
BITMAP
80
80
80
80
80
80
80
80
F8
ENDCHAR

STARTCHAR char77
ENCODING 77
SWIDTH 71 0
DWIDTH 10 0
BBX 9 9 0 0
BITMAP
C180
C180
E380
A280
A280
9480
9480
9C80
8880
ENDCHAR

STARTCHAR char78
ENCODING 78
SWIDTH 64 0
DWIDTH 9 0
BBX 7 9 0 0
BITMAP
C2
E2
E2
B2
92
8A
8E
86
82
ENDCHAR

STARTCHAR char79
ENCODING 79
SWIDTH 64 0
DWIDTH 9 0
BBX 8 9 0 0
BITMAP
3C
62
C1
81
81
81
C1
42
3C
ENDCHAR

STARTCHAR char80
ENCODING 80
SWIDTH 50 0
DWIDTH 7 0
BBX 6 9 1 0
BITMAP
F8
8C
84
84
F8
80
80
80
80
ENDCHAR

STARTCHAR char81
ENCODING 81
SWIDTH 64 0
DWIDTH 9 0
BBX 8 10 0 -1
BITMAP
3C
62
C1
81
81
81
C5
46
3E
02
ENDCHAR

STARTCHAR char82
ENCODING 82
SWIDTH 57 0
DWIDTH 8 0
BBX 6 9 1 0
BITMAP
F8
8C
84
84
F8
88
8C
84
84
ENDCHAR

STARTCHAR char83
ENCODING 83
SWIDTH 57 0
DWIDTH 8 0
BBX 7 9 0 0
BITMAP
3C
46
42
60
3C
06
C2
42
3C
ENDCHAR

STARTCHAR char84
ENCODING 84
SWIDTH 50 0
DWIDTH 7 0
BBX 6 9 0 0
BITMAP
FC
20
20
20
20
20
20
20
20
ENDCHAR

STARTCHAR char85
ENCODING 85
SWIDTH 57 0
DWIDTH 8 0
BBX 7 9 0 0
BITMAP
82
82
82
82
82
82
82
C6
7C
ENDCHAR

STARTCHAR char86
ENCODING 86
SWIDTH 57 0
DWIDTH 8 0
BBX 7 9 0 0
BITMAP
82
86
C4
44
4C
68
28
38
30
ENDCHAR

STARTCHAR char87
ENCODING 87
SWIDTH 6 0
DWIDTH 11 0
BBX 11 9 -1 0
BITMAP
C620
4620
4A60
4A40
6B40
2940
31C0
3180
3180
ENDCHAR

STARTCHAR char88
ENCODING 88
SWIDTH 57 0
DWIDTH 8 0
BBX 7 9 0 0
BITMAP
84
44
68
38
10
38
68
C4
86
ENDCHAR

STARTCHAR char89
ENCODING 89
SWIDTH 57 0
DWIDTH 8 0
BBX 7 9 0 0
BITMAP
82
C6
44
28
38
10
10
10
10
ENDCHAR

STARTCHAR char90
ENCODING 90
SWIDTH 50 0
DWIDTH 7 0
BBX 7 9 0 0
BITMAP
FC
04
08
18
30
60
40
C0
FE
ENDCHAR

STARTCHAR char91
ENCODING 91
SWIDTH 28 0
DWIDTH 4 0
BBX 3 11 1 -2
BITMAP
E0
80
80
80
80
80
80
80
80
80
E0
ENDCHAR

STARTCHAR char92
ENCODING 92
SWIDTH 28 0
DWIDTH 4 0
BBX 4 9 0 0
BITMAP
80
80
40
40
40
20
20
20
20
ENDCHAR

STARTCHAR char93
ENCODING 93
SWIDTH 28 0
DWIDTH 4 0
BBX 2 11 0 -2
BITMAP
C0
40
40
40
40
40
40
40
40
40
C0
ENDCHAR

STARTCHAR char94
ENCODING 94
SWIDTH 0 0
DWIDTH 0 0
BBX 4 2 -2 9
BITMAP
60
B0
ENDCHAR

STARTCHAR char95
ENCODING 95
SWIDTH 50 0
DWIDTH 7 0
BBX 7 1 0 -2
BITMAP
FE
ENDCHAR

STARTCHAR char96
ENCODING 96
SWIDTH 0 0
DWIDTH 0 0
BBX 2 1 -1 7
BITMAP
80
ENDCHAR

STARTCHAR char97
ENCODING 97
SWIDTH 50 0
DWIDTH 7 0
BBX 6 6 0 0
BITMAP
78
88
78
C8
88
7C
ENDCHAR

STARTCHAR char98
ENCODING 98
SWIDTH 50 0
DWIDTH 7 0
BBX 5 9 1 0
BITMAP
80
80
80
F0
88
88
88
88
F0
ENDCHAR

STARTCHAR char99
ENCODING 99
SWIDTH 50 0
DWIDTH 7 0
BBX 6 6 0 0
BITMAP
78
84
80
80
C4
78
ENDCHAR

STARTCHAR char100
ENCODING 100
SWIDTH 50 0
DWIDTH 7 0
BBX 6 9 0 0
BITMAP
04
04
04
7C
84
84
84
CC
74
ENDCHAR

STARTCHAR char101
ENCODING 101
SWIDTH 50 0
DWIDTH 7 0
BBX 6 6 0 0
BITMAP
78
84
FC
80
CC
78
ENDCHAR

STARTCHAR char102
ENCODING 102
SWIDTH 21 0
DWIDTH 3 0
BBX 3 9 0 0
BITMAP
60
40
40
E0
40
40
40
40
40
ENDCHAR

STARTCHAR char103
ENCODING 103
SWIDTH 50 0
DWIDTH 7 0
BBX 6 8 0 -2
BITMAP
7C
84
84
84
CC
74
C4
78
ENDCHAR

STARTCHAR char104
ENCODING 104
SWIDTH 50 0
DWIDTH 7 0
BBX 5 9 1 0
BITMAP
80
80
80
F0
88
88
88
88
88
ENDCHAR

STARTCHAR char105
ENCODING 105
SWIDTH 21 0
DWIDTH 3 0
BBX 1 9 1 0
BITMAP
80
00
00
80
80
80
80
80
80
ENDCHAR

STARTCHAR char106
ENCODING 106
SWIDTH 21 0
DWIDTH 3 0
BBX 3 11 -1 -2
BITMAP
20
00
00
20
20
20
20
20
20
20
E0
ENDCHAR

STARTCHAR char107
ENCODING 107
SWIDTH 50 0
DWIDTH 7 0
BBX 5 9 1 0
BITMAP
80
80
80
90
A0
E0
B0
90
88
ENDCHAR

STARTCHAR char108
ENCODING 108
SWIDTH 21 0
DWIDTH 3 0
BBX 1 9 1 0
BITMAP
80
80
80
80
80
80
80
80
80
ENDCHAR

STARTCHAR char109
ENCODING 109
SWIDTH 71 0
DWIDTH 10 0
BBX 9 6 0 0
BITMAP
F700
8980
8880
8880
8880
8880
ENDCHAR

STARTCHAR char110
ENCODING 110
SWIDTH 50 0
DWIDTH 7 0
BBX 5 6 1 0
BITMAP
F0
88
88
88
88
88
ENDCHAR

STARTCHAR char111
ENCODING 111
SWIDTH 50 0
DWIDTH 7 0
BBX 6 6 0 0
BITMAP
78
84
84
84
CC
78
ENDCHAR

STARTCHAR char112
ENCODING 112
SWIDTH 50 0
DWIDTH 7 0
BBX 5 8 1 -2
BITMAP
F0
88
88
88
88
F0
80
80
ENDCHAR

STARTCHAR char113
ENCODING 113
SWIDTH 50 0
DWIDTH 7 0
BBX 6 8 0 -2
BITMAP
7C
84
84
84
CC
74
04
04
ENDCHAR

STARTCHAR char114
ENCODING 114
SWIDTH 28 0
DWIDTH 4 0
BBX 3 6 1 0
BITMAP
E0
80
80
80
80
80
ENDCHAR

STARTCHAR char115
ENCODING 115
SWIDTH 43 0
DWIDTH 6 0
BBX 6 6 0 0
BITMAP
78
8C
78
0C
84
78
ENDCHAR

STARTCHAR char116
ENCODING 116
SWIDTH 21 0
DWIDTH 3 0
BBX 3 8 0 0
BITMAP
40
40
E0
40
40
40
40
60
ENDCHAR

STARTCHAR char117
ENCODING 117
SWIDTH 50 0
DWIDTH 7 0
BBX 5 6 1 0
BITMAP
88
88
88
88
98
68
ENDCHAR

STARTCHAR char118
ENCODING 118
SWIDTH 43 0
DWIDTH 6 0
BBX 5 6 0 0
BITMAP
88
88
58
50
50
20
ENDCHAR

STARTCHAR char119
ENCODING 119
SWIDTH 64 0
DWIDTH 9 0
BBX 8 6 0 0
BITMAP
99
99
9B
6A
66
64
ENDCHAR

STARTCHAR char120
ENCODING 120
SWIDTH 43 0
DWIDTH 6 0
BBX 6 6 0 0
BITMAP
C8
78
20
70
D8
88
ENDCHAR

STARTCHAR char121
ENCODING 121
SWIDTH 43 0
DWIDTH 6 0
BBX 6 8 0 -2
BITMAP
88
C8
48
58
30
30
20
E0
ENDCHAR

STARTCHAR char122
ENCODING 122
SWIDTH 43 0
DWIDTH 6 0
BBX 5 6 0 0
BITMAP
F8
10
20
60
C0
F8
ENDCHAR

STARTCHAR char123
ENCODING 123
SWIDTH 28 0
DWIDTH 4 0
BBX 3 12 1 -3
BITMAP
60
40
40
40
C0
80
80
40
40
40
40
60
ENDCHAR

STARTCHAR char124
ENCODING 124
SWIDTH 21 0
DWIDTH 3 0
BBX 1 9 1 0
BITMAP
80
80
80
80
80
80
80
80
80
ENDCHAR

STARTCHAR char125
ENCODING 125
SWIDTH 28 0
DWIDTH 4 0
BBX 3 12 1 -3
BITMAP
80
40
40
40
40
20
40
40
40
40
40
C0
ENDCHAR

STARTCHAR char126
ENCODING 126
SWIDTH 0 0
DWIDTH 0 0
BBX 4 2 -2 9
BITMAP
F0
A0
ENDCHAR

STARTCHAR char128
ENCODING 128
SWIDTH 50 0
DWIDTH 7 0
BBX 7 9 0 0
BITMAP
1E
22
40
FC
40
FC
40
20
1C
ENDCHAR

STARTCHAR char130
ENCODING 130
SWIDTH 21 0
DWIDTH 3 0
BBX 1 3 1 -2
BITMAP
80
80
80
ENDCHAR

STARTCHAR char131
ENCODING 131
SWIDTH 0 0
DWIDTH 0 0
BBX 4 2 -2 9
BITMAP
60
B0
ENDCHAR

STARTCHAR char132
ENCODING 132
SWIDTH 35 0
DWIDTH 5 0
BBX 3 3 1 -2
BITMAP
A0
A0
A0
ENDCHAR

STARTCHAR char133
ENCODING 133
SWIDTH 20 0
DWIDTH 13 0
BBX 9 1 2 0
BITMAP
8880
ENDCHAR

STARTCHAR char134
ENCODING 134
SWIDTH 43 0
DWIDTH 6 0
BBX 6 10 0 -1
BITMAP
20
20
20
FC
20
20
20
20
20
20
ENDCHAR

STARTCHAR char136
ENCODING 136
SWIDTH 0 0
DWIDTH 0 0
BBX 4 1 -2 7
BITMAP
60
ENDCHAR

STARTCHAR char138
ENCODING 138
SWIDTH 13 0
DWIDTH 12 0
BBX 0 0 0 0
BITMAP
ENDCHAR

STARTCHAR char139
ENCODING 139
SWIDTH 28 0
DWIDTH 4 0
BBX 2 5 1 1
BITMAP
40
40
80
40
40
ENDCHAR

STARTCHAR char140
ENCODING 140
SWIDTH 20 0
DWIDTH 13 0
BBX 12 9 0 0
BITMAP
3FF0
4600
C200
8200
83F0
8200
8200
4200
3FF0
ENDCHAR

STARTCHAR char141
ENCODING 141
SWIDTH 13 0
DWIDTH 12 0
BBX 0 0 0 0
BITMAP
ENDCHAR

STARTCHAR char145
ENCODING 145
SWIDTH 21 0
DWIDTH 3 0
BBX 1 3 1 6
BITMAP
80
80
80
ENDCHAR

STARTCHAR char146
ENCODING 146
SWIDTH 21 0
DWIDTH 3 0
BBX 1 3 1 6
BITMAP
80
80
80
ENDCHAR

STARTCHAR char147
ENCODING 147
SWIDTH 35 0
DWIDTH 5 0
BBX 3 3 1 6
BITMAP
A0
A0
A0
ENDCHAR

STARTCHAR char148
ENCODING 148
SWIDTH 35 0
DWIDTH 5 0
BBX 3 3 1 6
BITMAP
A0
A0
A0
ENDCHAR

STARTCHAR char149
ENCODING 149
SWIDTH 28 0
DWIDTH 4 0
BBX 3 3 1 3
BITMAP
E0
E0
E0
ENDCHAR

STARTCHAR char150
ENCODING 150
SWIDTH 50 0
DWIDTH 7 0
BBX 6 1 0 3
BITMAP
FC
ENDCHAR

STARTCHAR char151
ENCODING 151
SWIDTH 57 0
DWIDTH 8 0
BBX 9 1 -1 3
BITMAP
FF80
ENDCHAR

STARTCHAR char152
ENCODING 152
SWIDTH 0 0
DWIDTH 0 0
BBX 4 1 -2 7
BITMAP
F0
ENDCHAR

STARTCHAR char153
ENCODING 153
SWIDTH 6 0
DWIDTH 11 0
BBX 10 5 0 3
BITMAP
F480
4D80
4D80
4A80
6AC0
ENDCHAR

STARTCHAR char155
ENCODING 155
SWIDTH 28 0
DWIDTH 4 0
BBX 2 5 1 1
BITMAP
80
80
40
C0
80
ENDCHAR

STARTCHAR char156
ENCODING 156
SWIDTH 6 0
DWIDTH 11 0
BBX 10 6 0 0
BITMAP
7BC0
8440
87C0
8400
8C40
7B80
ENDCHAR

STARTCHAR char157
ENCODING 157
SWIDTH 13 0
DWIDTH 12 0
BBX 0 0 0 0
BITMAP
ENDCHAR

STARTCHAR char159
ENCODING 159
SWIDTH 57 0
DWIDTH 8 0
BBX 7 11 0 0
BITMAP
28
08
82
C4
44
28
38
10
10
10
10
ENDCHAR

STARTCHAR char160
ENCODING 160
SWIDTH 28 0
DWIDTH 4 0
BBX 0 0 0 0
BITMAP
ENDCHAR

STARTCHAR char161
ENCODING 161
SWIDTH 21 0
DWIDTH 3 0
BBX 1 9 1 0
BITMAP
80
00
80
80
80
80
80
80
80
ENDCHAR

STARTCHAR char162
ENCODING 162
SWIDTH 50 0
DWIDTH 7 0
BBX 6 9 0 -1
BITMAP
10
10
78
D4
90
90
D4
78
10
ENDCHAR

STARTCHAR char163
ENCODING 163
SWIDTH 50 0
DWIDTH 7 0
BBX 7 9 0 0
BITMAP
78
44
C4
C0
F0
20
20
62
FE
ENDCHAR

STARTCHAR char164
ENCODING 164
SWIDTH 0 0
DWIDTH 0 0
BBX 2 1 -1 10
BITMAP
40
ENDCHAR

STARTCHAR char165
ENCODING 165
SWIDTH 0 0
DWIDTH 0 0
BBX 4 1 -2 10
BITMAP
60
ENDCHAR

STARTCHAR char166
ENCODING 166
SWIDTH 13 0
DWIDTH 12 0
BBX 0 0 0 0
BITMAP
ENDCHAR

STARTCHAR char167
ENCODING 167
SWIDTH 50 0
DWIDTH 7 0
BBX 6 11 0 -2
BITMAP
38
48
40
60
98
8C
64
38
08
48
38
ENDCHAR

STARTCHAR char168
ENCODING 168
SWIDTH 0 0
DWIDTH 0 0
BBX 3 1 -2 7
BITMAP
A0
ENDCHAR

STARTCHAR char169
ENCODING 169
SWIDTH 71 0
DWIDTH 10 0
BBX 9 8 0 0
BITMAP
3C00
4F00
9280
A080
A080
A680
5B00
3C00
ENDCHAR

STARTCHAR char170
ENCODING 170
SWIDTH 0 0
DWIDTH 0 0
BBX 3 2 -2 9
BITMAP
A0
20
ENDCHAR

STARTCHAR char171
ENCODING 171
SWIDTH 35 0
DWIDTH 5 0
BBX 4 4 0 1
BITMAP
50
A0
D0
50
ENDCHAR

STARTCHAR char172
ENCODING 172
SWIDTH 64 0
DWIDTH 9 0
BBX 8 3 0 0
BITMAP
FF
01
01
ENDCHAR

STARTCHAR char174
ENCODING 174
SWIDTH 71 0
DWIDTH 10 0
BBX 9 8 0 0
BITMAP
3C00
5F00
9480
9C80
9C80
9480
7F00
3C00
ENDCHAR

STARTCHAR char176
ENCODING 176
SWIDTH 28 0
DWIDTH 4 0
BBX 4 4 0 4
BITMAP
E0
90
B0
40
ENDCHAR

STARTCHAR char177
ENCODING 177
SWIDTH 50 0
DWIDTH 7 0
BBX 6 8 0 0
BITMAP
10
10
10
FC
10
10
10
FC
ENDCHAR

STARTCHAR char179
ENCODING 179
SWIDTH 13 0
DWIDTH 12 0
BBX 0 0 0 0
BITMAP
ENDCHAR

STARTCHAR char180
ENCODING 180
SWIDTH 0 0
DWIDTH 0 0
BBX 2 1 -1 7
BITMAP
40
ENDCHAR

STARTCHAR char182
ENCODING 182
SWIDTH 64 0
DWIDTH 9 0
BBX 6 11 1 -2
BITMAP
7C
E8
E8
E8
68
28
28
28
28
28
28
ENDCHAR

STARTCHAR char183
ENCODING 183
SWIDTH 14 0
DWIDTH 2 0
BBX 1 1 1 3
BITMAP
80
ENDCHAR

STARTCHAR char184
ENCODING 184
SWIDTH 0 0
DWIDTH 0 0
BBX 1 3 -1 -3
BITMAP
80
80
80
ENDCHAR

STARTCHAR char185
ENCODING 185
SWIDTH 13 0
DWIDTH 12 0
BBX 0 0 0 0
BITMAP
ENDCHAR

STARTCHAR char186
ENCODING 186
SWIDTH 0 0
DWIDTH 0 0
BBX 4 2 -2 9
BITMAP
F0
A0
ENDCHAR

STARTCHAR char187
ENCODING 187
SWIDTH 35 0
DWIDTH 5 0
BBX 4 4 0 1
BITMAP
B0
50
D0
A0
ENDCHAR

STARTCHAR char189
ENCODING 189
SWIDTH 13 0
DWIDTH 12 0
BBX 0 0 0 0
BITMAP
ENDCHAR

STARTCHAR char191
ENCODING 191
SWIDTH 50 0
DWIDTH 7 0
BBX 6 9 0 0
BITMAP
20
00
20
20
40
C0
8C
88
70
ENDCHAR

STARTCHAR char192
ENCODING 192
SWIDTH 57 0
DWIDTH 8 0
BBX 7 11 0 0
BITMAP
30
00
10
38
28
68
44
7C
C4
86
82
ENDCHAR

STARTCHAR char193
ENCODING 193
SWIDTH 57 0
DWIDTH 8 0
BBX 7 11 0 0
BITMAP
10
00
10
38
28
68
44
7C
C4
86
82
ENDCHAR

STARTCHAR char194
ENCODING 194
SWIDTH 57 0
DWIDTH 8 0
BBX 7 11 0 0
BITMAP
30
28
10
38
28
68
44
7C
C4
86
82
ENDCHAR

STARTCHAR char195
ENCODING 195
SWIDTH 57 0
DWIDTH 8 0
BBX 7 11 0 0
BITMAP
38
58
10
30
28
68
44
7C
C4
86
82
ENDCHAR

STARTCHAR char196
ENCODING 196
SWIDTH 57 0
DWIDTH 8 0
BBX 7 11 0 0
BITMAP
28
00
10
38
28
68
44
7C
C4
86
82
ENDCHAR

STARTCHAR char197
ENCODING 197
SWIDTH 57 0
DWIDTH 8 0
BBX 7 11 0 0
BITMAP
18
18
10
38
28
68
44
7C
C4
86
82
ENDCHAR

STARTCHAR char198
ENCODING 198
SWIDTH 13 0
DWIDTH 12 0
BBX 12 9 -1 0
BITMAP
1FE0
1200
1200
2200
23E0
7E00
4200
4200
C3F0
ENDCHAR

STARTCHAR char199
ENCODING 199
SWIDTH 64 0
DWIDTH 9 0
BBX 8 12 0 -3
BITMAP
3C
62
C3
80
80
80
C2
46
3C
10
10
10
ENDCHAR

STARTCHAR char200
ENCODING 200
SWIDTH 57 0
DWIDTH 8 0
BBX 6 11 1 0
BITMAP
60
00
FC
80
80
80
F8
80
80
80
FC
ENDCHAR

STARTCHAR char201
ENCODING 201
SWIDTH 57 0
DWIDTH 8 0
BBX 6 11 1 0
BITMAP
20
00
FC
80
80
80
F8
80
80
80
FC
ENDCHAR

STARTCHAR char202
ENCODING 202
SWIDTH 57 0
DWIDTH 8 0
BBX 6 11 1 0
BITMAP
20
50
FC
80
80
80
F8
80
80
80
FC
ENDCHAR

STARTCHAR char203
ENCODING 203
SWIDTH 57 0
DWIDTH 8 0
BBX 6 11 1 0
BITMAP
50
10
FC
80
80
80
F8
80
80
80
FC
ENDCHAR

STARTCHAR char204
ENCODING 204
SWIDTH 21 0
DWIDTH 3 0
BBX 2 11 0 0
BITMAP
40
00
40
40
40
40
40
40
40
40
40
ENDCHAR

STARTCHAR char205
ENCODING 205
SWIDTH 21 0
DWIDTH 3 0
BBX 2 11 1 0
BITMAP
80
00
80
80
80
80
80
80
80
80
80
ENDCHAR

STARTCHAR char206
ENCODING 206
SWIDTH 21 0
DWIDTH 3 0
BBX 4 11 -1 0
BITMAP
60
50
20
20
20
20
20
20
20
20
20
ENDCHAR

STARTCHAR char207
ENCODING 207
SWIDTH 21 0
DWIDTH 3 0
BBX 3 11 0 0
BITMAP
A0
20
40
40
40
40
40
40
40
40
40
ENDCHAR

STARTCHAR char209
ENCODING 209
SWIDTH 64 0
DWIDTH 9 0
BBX 7 11 0 0
BITMAP
34
48
C2
C2
E2
B2
92
8A
8E
86
82
ENDCHAR

STARTCHAR char210
ENCODING 210
SWIDTH 64 0
DWIDTH 9 0
BBX 8 11 0 0
BITMAP
10
00
3C
62
C1
81
81
81
C1
42
3C
ENDCHAR

STARTCHAR char211
ENCODING 211
SWIDTH 64 0
DWIDTH 9 0
BBX 8 11 0 0
BITMAP
08
00
3C
62
C1
81
81
81
C1
42
3C
ENDCHAR

STARTCHAR char212
ENCODING 212
SWIDTH 64 0
DWIDTH 9 0
BBX 8 11 0 0
BITMAP
18
2C
3C
62
C1
81
81
81
C1
42
3C
ENDCHAR

STARTCHAR char213
ENCODING 213
SWIDTH 64 0
DWIDTH 9 0
BBX 8 11 0 0
BITMAP
3C
28
3C
62
C1
81
81
81
C1
42
3C
ENDCHAR

STARTCHAR char214
ENCODING 214
SWIDTH 64 0
DWIDTH 9 0
BBX 8 11 0 0
BITMAP
14
00
3C
62
C1
81
81
81
C1
42
3C
ENDCHAR

STARTCHAR char216
ENCODING 216
SWIDTH 64 0
DWIDTH 9 0
BBX 8 9 0 0
BITMAP
3D
62
C5
85
89
91
E1
42
BC
ENDCHAR

STARTCHAR char217
ENCODING 217
SWIDTH 57 0
DWIDTH 8 0
BBX 7 11 0 0
BITMAP
10
00
82
82
82
82
82
82
82
C6
7C
ENDCHAR

STARTCHAR char218
ENCODING 218
SWIDTH 57 0
DWIDTH 8 0
BBX 7 11 0 0
BITMAP
10
00
82
82
82
82
82
82
82
C6
7C
ENDCHAR

STARTCHAR char219
ENCODING 219
SWIDTH 57 0
DWIDTH 8 0
BBX 7 11 0 0
BITMAP
10
28
82
82
82
82
82
82
82
C6
7C
ENDCHAR

STARTCHAR char220
ENCODING 220
SWIDTH 57 0
DWIDTH 8 0
BBX 7 11 0 0
BITMAP
28
08
82
82
82
82
82
82
82
C6
7C
ENDCHAR

STARTCHAR char222
ENCODING 222
SWIDTH 13 0
DWIDTH 12 0
BBX 0 0 0 0
BITMAP
ENDCHAR

STARTCHAR char223
ENCODING 223
SWIDTH 50 0
DWIDTH 7 0
BBX 5 9 1 0
BITMAP
60
90
90
90
E0
98
98
90
E0
ENDCHAR

STARTCHAR char224
ENCODING 224
SWIDTH 50 0
DWIDTH 7 0
BBX 6 8 0 0
BITMAP
20
00
78
88
78
C8
88
7C
ENDCHAR

STARTCHAR char225
ENCODING 225
SWIDTH 50 0
DWIDTH 7 0
BBX 6 8 0 0
BITMAP
10
00
78
88
78
C8
88
7C
ENDCHAR

STARTCHAR char226
ENCODING 226
SWIDTH 50 0
DWIDTH 7 0
BBX 6 8 0 0
BITMAP
70
00
78
88
78
C8
88
7C
ENDCHAR

STARTCHAR char227
ENCODING 227
SWIDTH 50 0
DWIDTH 7 0
BBX 6 8 0 0
BITMAP
70
00
78
88
78
C8
88
7C
ENDCHAR

STARTCHAR char228
ENCODING 228
SWIDTH 50 0
DWIDTH 7 0
BBX 6 8 0 0
BITMAP
50
00
78
88
78
88
98
6C
ENDCHAR

STARTCHAR char229
ENCODING 229
SWIDTH 50 0
DWIDTH 7 0
BBX 6 9 0 0
BITMAP
30
30
00
78
C8
78
C8
98
7C
ENDCHAR

STARTCHAR char230
ENCODING 230
SWIDTH 6 0
DWIDTH 11 0
BBX 10 6 0 0
BITMAP
7780
88C0
7FC0
8800
9880
F780
ENDCHAR

STARTCHAR char231
ENCODING 231
SWIDTH 50 0
DWIDTH 7 0
BBX 6 9 0 -3
BITMAP
78
84
80
80
C4
78
20
20
20
ENDCHAR

STARTCHAR char232
ENCODING 232
SWIDTH 50 0
DWIDTH 7 0
BBX 6 8 0 0
BITMAP
20
00
78
84
FC
80
CC
78
ENDCHAR

STARTCHAR char233
ENCODING 233
SWIDTH 50 0
DWIDTH 7 0
BBX 6 8 0 0
BITMAP
10
00
78
84
FC
80
CC
78
ENDCHAR

STARTCHAR char234
ENCODING 234
SWIDTH 50 0
DWIDTH 7 0
BBX 6 8 0 0
BITMAP
70
00
78
84
FC
80
CC
78
ENDCHAR

STARTCHAR char235
ENCODING 235
SWIDTH 50 0
DWIDTH 7 0
BBX 6 8 0 0
BITMAP
50
00
78
8C
FC
80
CC
78
ENDCHAR

STARTCHAR char236
ENCODING 236
SWIDTH 21 0
DWIDTH 3 0
BBX 2 8 0 0
BITMAP
40
00
40
40
40
40
40
40
ENDCHAR

STARTCHAR char237
ENCODING 237
SWIDTH 21 0
DWIDTH 3 0
BBX 2 8 1 0
BITMAP
80
00
80
80
80
80
80
80
ENDCHAR

STARTCHAR char238
ENCODING 238
SWIDTH 21 0
DWIDTH 3 0
BBX 4 8 -1 0
BITMAP
70
00
20
20
20
20
20
20
ENDCHAR

STARTCHAR char239
ENCODING 239
SWIDTH 21 0
DWIDTH 3 0
BBX 3 8 0 0
BITMAP
A0
00
40
40
40
40
40
40
ENDCHAR

STARTCHAR char241
ENCODING 241
SWIDTH 50 0
DWIDTH 7 0
BBX 5 8 1 0
BITMAP
70
00
F0
88
88
88
88
88
ENDCHAR

STARTCHAR char242
ENCODING 242
SWIDTH 50 0
DWIDTH 7 0
BBX 6 8 0 0
BITMAP
20
00
78
84
84
84
CC
78
ENDCHAR

STARTCHAR char243
ENCODING 243
SWIDTH 50 0
DWIDTH 7 0
BBX 6 8 0 0
BITMAP
10
00
78
84
84
84
CC
78
ENDCHAR

STARTCHAR char244
ENCODING 244
SWIDTH 50 0
DWIDTH 7 0
BBX 6 8 0 0
BITMAP
30
00
78
84
84
84
CC
78
ENDCHAR

STARTCHAR char245
ENCODING 245
SWIDTH 50 0
DWIDTH 7 0
BBX 6 8 0 0
BITMAP
78
00
78
84
84
84
CC
78
ENDCHAR

STARTCHAR char246
ENCODING 246
SWIDTH 50 0
DWIDTH 7 0
BBX 6 8 0 0
BITMAP
28
38
48
C4
84
84
C4
78
ENDCHAR

STARTCHAR char247
ENCODING 247
SWIDTH 50 0
DWIDTH 7 0
BBX 6 4 0 1
BITMAP
20
FC
00
20
ENDCHAR

STARTCHAR char248
ENCODING 248
SWIDTH 50 0
DWIDTH 7 0
BBX 6 6 0 0
BITMAP
7C
8C
94
A4
CC
F8
ENDCHAR

STARTCHAR char249
ENCODING 249
SWIDTH 50 0
DWIDTH 7 0
BBX 5 8 1 0
BITMAP
40
00
88
88
88
88
98
68
ENDCHAR

STARTCHAR char250
ENCODING 250
SWIDTH 50 0
DWIDTH 7 0
BBX 5 8 1 0
BITMAP
20
00
88
88
88
88
98
68
ENDCHAR

STARTCHAR char251
ENCODING 251
SWIDTH 50 0
DWIDTH 7 0
BBX 5 8 1 0
BITMAP
70
00
88
88
88
88
98
68
ENDCHAR

STARTCHAR char252
ENCODING 252
SWIDTH 50 0
DWIDTH 7 0
BBX 5 8 1 0
BITMAP
50
00
88
88
88
88
98
68
ENDCHAR

STARTCHAR char255
ENCODING 255
SWIDTH 43 0
DWIDTH 6 0
BBX 6 10 0 -2
BITMAP
50
00
88
C8
48
50
30
30
20
E0
ENDCHAR
ENDFONT
